<svg xmlns="http://www.w3.org/2000/svg" xmlns:xlink="http://www.w3.org/1999/xlink" xmlns:lucid="lucid" width="565" height="757"><g transform="translate(-337 -211)" lucid:page-tab-id="0_0"><path d="M380 365c0-2.76 2.24-5 5-5h90c2.76 0 5 2.24 5 5v10c0 2.76-1.58 6.58-3.54 8.54l-2.92 2.92c-1.96 1.96-5.78 3.54-8.54 3.54h-80c-2.76 0-5-2.24-5-5z" fill="#fff"/><path d="M480 360v20l-10 10h-90" fill="none"/><path d="M480 360v20l-10 10h-10m-10 0h-20m-10 0h-20m-10 0h-10" stroke="#000" stroke-width="2" fill="none"/><path d="M380 365c0-2.76 2.24-5 5-5h470c2.76 0 5 2.24 5 5v490c0 2.76-2.24 5-5 5H385c-2.76 0-5-2.24-5-5z" fill="none"/><path d="M404.58 360h19.6m9.78 0h19.58m9.8 0h19.58m9.8 0h19.57m9.78 0h19.6m9.78 0h19.58m9.8 0h19.58m9.8 0h19.57m9.78 0h19.6m9.78 0h19.58m9.8 0h19.58m9.8 0h19.57m9.78 0h19.6m9.78 0h19.58m9.8 0h19.58m9.8 0H855l2.95.96 1.8 2.46.25 1.58v10.2m0 10.22v20.4m0 10.22v20.42m0 10.2v20.42m0 10.2v20.43m0 10.22v20.4m0 10.22v20.42m0 10.2v20.42m0 10.2v20.43m0 10.22v20.4m0 10.22v20.42m0 10.2v20.42m0 10.2v20.43m0 10.22v20.4m0 10.22v20.42m0 10.2v20.42m0 10.2V855l-.96 2.95-2.46 1.8-1.58.25h-9.8m-9.78 0h-19.6m-9.78 0h-19.58m-9.8 0H757.1m-9.8 0h-19.57m-9.78 0h-19.6m-9.78 0h-19.58m-9.8 0H639.6m-9.8 0h-19.57m-9.78 0h-19.6m-9.78 0h-19.58m-9.8 0H522.1m-9.8 0h-19.57m-9.78 0h-19.6m-9.78 0h-19.58m-9.8 0H404.6m-9.8 0H385l-2.95-.96-1.8-2.46L380 855v-10.2m0-10.22v-20.4m0-10.22v-20.42m0-10.2V752.9m0-10.2v-20.43m0-10.22v-20.4m0-10.22v-20.42m0-10.2V630.4m0-10.2v-20.43m0-10.22v-20.4m0-10.22v-20.42m0-10.2V507.9m0-10.2v-20.43m0-10.22v-20.4m0-10.22v-20.42m0-10.2V385.4m0-10.2V365l.96-2.95 2.46-1.8L385 360h9.8" stroke="#000" stroke-width="2" fill="none"/><use xlink:href="#a" transform="matrix(1,0,0,1,388,360) translate(0 18.6)"/><use xlink:href="#b" transform="matrix(1,0,0,1,392,398) translate(0 18.6)"/><path d="M600 260c0 11.05-8.95 20-20 20s-20-8.95-20-20 8.95-20 20-20 20 8.95 20 20z" stroke="#000" stroke-width="2"/><path d="M516 320c-8.84 0-16 7.16-16 16v48c0 8.84 7.16 16 16 16h128c8.84 0 16-7.16 16-16v-48c0-8.84-7.16-16-16-16z" stroke="#000" stroke-width="2" fill="#fff"/><use xlink:href="#c" transform="matrix(1,0,0,1,508,328) translate(8.574999999999996 35.6)"/><use xlink:href="#d" transform="matrix(1,0,0,1,508,328) translate(56.525 35.6)"/><path d="M580 282v18.5" stroke="#000" stroke-width="2" fill="none"/><path d="M579.96 281l1.04-.03v1.06h-2v-1.15z"/><path d="M580 315.76l-4.64-14.26h9.28z" stroke="#000" stroke-width="2"/><path d="M580 402v22.18c0 2.76 2.24 5 5 5h50c2.76 0 5 2.24 5 5v4.67" stroke="#000" stroke-width="2" fill="none"/><path d="M581 402.03h-2V401h2z"/><path d="M640 454.12l-4.64-14.27h9.28z" stroke="#000" stroke-width="2"/><path d="M420 505c0-2.76 2.24-5 5-5h90c2.76 0 5 2.24 5 5v10c0 2.76-1.58 6.58-3.54 8.54l-2.92 2.92c-1.96 1.96-5.78 3.54-8.54 3.54h-80c-2.76 0-5-2.24-5-5z" fill="#fff"/><path d="M520 500v20l-10 10h-90" fill="none"/><path d="M520 500v20l-10 10h-10m-10 0h-20m-10 0h-20m-10 0h-10" stroke="#000" stroke-width="2" fill="none"/><path d="M420 505c0-2.76 2.24-5 5-5h390c2.76 0 5 2.24 5 5v188.98c0 2.76-2.24 5-5 5H425c-2.76 0-5-2.24-5-5z" fill="none"/><path d="M445 500h20m10 0h20m10 0h20m10 0h20m10 0h20m10 0h20m10 0h20m10 0h20m10 0h20m10 0h20m10 0h20m10 0h20m10 0h10l2.95.96 1.8 2.46.25 1.58v10.5m0 10.5v21m0 10.5v21m0 10.5v21m0 10.5v21m0 10.5v21m0 10.48v10.5l-.96 2.96-2.46 1.8-1.58.24h-10m-10 0h-20m-10 0h-20m-10 0h-20m-10 0h-20m-10 0h-20m-10 0h-20m-10 0h-20m-10 0h-20m-10 0h-20m-10 0h-20m-10 0h-20m-10 0h-20m-10 0h-10l-2.95-.96-1.8-2.46-.25-1.58v-10.5m0-10.5v-21m0-10.5v-21m0-10.5v-21m0-10.5V557.5m0-10.5v-21m0-10.5V505l.96-2.95 2.46-1.8L425 500h10" stroke="#000" stroke-width="2" fill="none"/><use xlink:href="#a" transform="matrix(1,0,0,1,428,500) translate(0 18.6)"/><use xlink:href="#e" transform="matrix(1,0,0,1,432,538) translate(0 18.6)"/><use xlink:href="#f" transform="matrix(1,0,0,1,432,538) translate(34 18.6)"/><path d="M576 458.35c-8.84 0-16 7.17-16 16v48c0 8.84 7.16 16 16 16h128c8.84 0 16-7.16 16-16v-48c0-8.83-7.16-16-16-16z" stroke="#000" stroke-width="2" fill="#fff"/><use xlink:href="#g" transform="matrix(1,0,0,1,568,466.35357057681233) translate(26.525 24.799999999999997)"/><use xlink:href="#h" transform="matrix(1,0,0,1,568,466.35357057681233) translate(88.475 24.799999999999997)"/><use xlink:href="#i" transform="matrix(1,0,0,1,568,466.35357057681233) translate(37.525 46.4)"/><path d="M627.6 596.7c-8.83 0-16 7.17-16 16v48c0 8.84 7.17 16 16 16h128c8.85 0 16-7.16 16-16v-48c0-8.83-7.15-16-16-16z" stroke="#000" stroke-width="2" fill="#fff"/><use xlink:href="#g" transform="matrix(1,0,0,1,619.6089147274068,604.7071411536247) translate(26.525 24.799999999999997)"/><use xlink:href="#h" transform="matrix(1,0,0,1,619.6089147274068,604.7071411536247) translate(88.475 24.799999999999997)"/><use xlink:href="#j" transform="matrix(1,0,0,1,619.6089147274068,604.7071411536247) translate(44.574999999999996 46.4)"/><path d="M640 540.35v22.18c0 2.76 2.24 5 5 5h41.6c2.77 0 5 2.24 5 5v4.68" stroke="#000" stroke-width="2" fill="none"/><path d="M641 540.38h-2v-1.03h2z"/><path d="M691.6 592.47l-4.63-14.26h9.27z" stroke="#000" stroke-width="2"/><path d="M576 760c-8.84 0-16 7.16-16 16v48c0 8.84 7.16 16 16 16h128c8.84 0 16-7.16 16-16v-48c0-8.84-7.16-16-16-16z" stroke="#000" stroke-width="2" fill="#fff"/><use xlink:href="#k" transform="matrix(1,0,0,1,568,768) translate(4.575000000000003 35.6)"/><use xlink:href="#l" transform="matrix(1,0,0,1,568,768) translate(63.575 35.6)"/><use xlink:href="#m" transform="matrix(1,0,0,1,568,768) translate(116.525 35.6)"/><path d="M691.6 678.7v34.65c0 2.76-2.23 5-5 5H645c-2.76 0-5 2.24-5 5v17.15" stroke="#000" stroke-width="2" fill="none"/><path d="M692.6 678.73h-2v-1.02h2z"/><path d="M640 755.76l-4.64-14.26h9.28z" stroke="#000" stroke-width="2"/><path d="M620 920c0 11.05-8.95 20-20 20s-20-8.95-20-20 8.95-20 20-20 20 8.95 20 20z" stroke="#000" stroke-width="2" fill="#fff"/><path d="M612 920c0 6.63-5.37 12-12 12s-12-5.37-12-12 5.37-12 12-12 12 5.37 12 12z" stroke="#000" stroke-width="2"/><path d="M640 842v23c0 2.76-2.24 5-5 5h-30c-2.76 0-5 2.24-5 5v5.5" stroke="#000" stroke-width="2" fill="none"/><path d="M641 842.03h-2V841h2z"/><path d="M600 895.76l-4.64-14.26h9.28z" stroke="#000" stroke-width="2"/><defs><path d="M30 0v-248h33v221h125V0H30" id="n"/><path d="M100-194c62-1 85 37 85 99 1 63-27 99-86 99S16-35 15-95c0-66 28-99 85-99zM99-20c44 1 53-31 53-75 0-43-8-75-51-75s-53 32-53 75 10 74 51 75" id="o"/><path d="M115-194c55 1 70 41 70 98S169 2 115 4C84 4 66-9 55-30l1 105H24l-1-265h31l2 30c10-21 28-34 59-34zm-8 174c40 0 45-34 45-75s-6-73-45-74c-42 0-51 32-51 76 0 43 10 73 51 73" id="p"/><g id="a"><use transform="matrix(0.05,0,0,0.05,0,0)" xlink:href="#n"/><use transform="matrix(0.05,0,0,0.05,10,0)" xlink:href="#o"/><use transform="matrix(0.05,0,0,0.05,20,0)" xlink:href="#o"/><use transform="matrix(0.05,0,0,0.05,30,0)" xlink:href="#p"/></g><path d="M194 0L95-120 63-95V0H30v-248h33v124l119-124h40L117-140 236 0h-42" id="q"/><path d="M100-194c63 0 86 42 84 106H49c0 40 14 67 53 68 26 1 43-12 49-29l28 8c-11 28-37 45-77 45C44 4 14-33 15-96c1-61 26-98 85-98zm52 81c6-60-76-77-97-28-3 7-6 17-6 28h103" id="r"/><path d="M179-190L93 31C79 59 56 82 12 73V49c39 6 53-20 64-50L1-190h34L92-34l54-156h33" id="s"/><path d="M206 0h-36l-40-164L89 0H53L-1-190h32L70-26l43-164h34l41 164 42-164h31" id="t"/><path d="M114-163C36-179 61-72 57 0H25l-1-190h30c1 12-1 29 2 39 6-27 23-49 58-41v29" id="u"/><path d="M85-194c31 0 48 13 60 33l-1-100h32l1 261h-30c-2-10 0-23-3-31C134-8 116 4 85 4 32 4 16-35 15-94c0-66 23-100 70-100zm9 24c-40 0-46 34-46 75 0 40 6 74 45 74 42 0 51-32 51-76 0-42-9-74-50-73" id="v"/><path d="M135-143c-3-34-86-38-87 0 15 53 115 12 119 90S17 21 10-45l28-5c4 36 97 45 98 0-10-56-113-15-118-90-4-57 82-63 122-42 12 7 21 19 24 35" id="w"/><g id="b"><use transform="matrix(0.05,0,0,0.05,0,0)" xlink:href="#q"/><use transform="matrix(0.05,0,0,0.05,12,0)" xlink:href="#r"/><use transform="matrix(0.05,0,0,0.05,22,0)" xlink:href="#s"/><use transform="matrix(0.05,0,0,0.05,31,0)" xlink:href="#t"/><use transform="matrix(0.05,0,0,0.05,43.95,0)" xlink:href="#o"/><use transform="matrix(0.05,0,0,0.05,53.95,0)" xlink:href="#u"/><use transform="matrix(0.05,0,0,0.05,59.900000000000006,0)" xlink:href="#v"/><use transform="matrix(0.05,0,0,0.05,69.9,0)" xlink:href="#w"/></g><path d="M233-177c-1 41-23 64-60 70L243 0h-38l-65-103H63V0H30v-248c88 3 205-21 203 71zM63-129c60-2 137 13 137-47 0-61-80-42-137-45v92" id="x"/><path d="M141-36C126-15 110 5 73 4 37 3 15-17 15-53c-1-64 63-63 125-63 3-35-9-54-41-54-24 1-41 7-42 31l-33-3c5-37 33-52 76-52 45 0 72 20 72 64v82c-1 20 7 32 28 27v20c-31 9-61-2-59-35zM48-53c0 20 12 33 32 33 41-3 63-29 60-74-43 2-92-5-92 41" id="y"/><g id="c"><use transform="matrix(0.05,0,0,0.05,0,0)" xlink:href="#x"/><use transform="matrix(0.05,0,0,0.05,12.950000000000001,0)" xlink:href="#r"/><use transform="matrix(0.05,0,0,0.05,22.950000000000003,0)" xlink:href="#y"/><use transform="matrix(0.05,0,0,0.05,32.95,0)" xlink:href="#v"/></g><g id="d"><use transform="matrix(0.05,0,0,0.05,0,0)" xlink:href="#q"/><use transform="matrix(0.05,0,0,0.05,12,0)" xlink:href="#r"/><use transform="matrix(0.05,0,0,0.05,22,0)" xlink:href="#s"/><use transform="matrix(0.05,0,0,0.05,31,0)" xlink:href="#t"/><use transform="matrix(0.05,0,0,0.05,43.95,0)" xlink:href="#o"/><use transform="matrix(0.05,0,0,0.05,53.95,0)" xlink:href="#u"/><use transform="matrix(0.05,0,0,0.05,59.900000000000006,0)" xlink:href="#v"/><use transform="matrix(0.05,0,0,0.05,69.9,0)" xlink:href="#w"/></g><path d="M153-248C145-148 188 4 80 4 36 3 13-21 6-62l32-5c4 25 16 42 43 43 27 0 39-20 39-49v-147H72v-28h81" id="z"/><path d="M115-194c53 0 69 39 70 98 0 66-23 100-70 100C84 3 66-7 56-30L54 0H23l1-261h32v101c10-23 28-34 59-34zm-8 174c40 0 45-34 45-75 0-40-5-75-45-74-42 0-51 32-51 76 0 43 10 73 51 73" id="A"/><g id="e"><use transform="matrix(0.05,0,0,0.05,0,0)" xlink:href="#z"/><use transform="matrix(0.05,0,0,0.05,9,0)" xlink:href="#o"/><use transform="matrix(0.05,0,0,0.05,19,0)" xlink:href="#A"/></g><path d="M30-248c87 1 191-15 191 75 0 78-77 80-158 76V0H30v-248zm33 125c57 0 124 11 124-50 0-59-68-47-124-48v98" id="B"/><path d="M59-47c-2 24 18 29 38 22v24C64 9 27 4 27-40v-127H5v-23h24l9-43h21v43h35v23H59v120" id="C"/><path d="M24-231v-30h32v30H24zM24 0v-190h32V0H24" id="D"/><path d="M117-194c89-4 53 116 60 194h-32v-121c0-31-8-49-39-48C34-167 62-67 57 0H25l-1-190h30c1 10-1 24 2 32 11-22 29-35 61-36" id="E"/><path d="M177-190C167-65 218 103 67 71c-23-6-38-20-44-43l32-5c15 47 100 32 89-28v-30C133-14 115 1 83 1 29 1 15-40 15-95c0-56 16-97 71-98 29-1 48 16 59 35 1-10 0-23 2-32h30zM94-22c36 0 50-32 50-73 0-42-14-75-50-75-39 0-46 34-46 75s6 73 46 73" id="F"/><g id="f"><use transform="matrix(0.05,0,0,0.05,0,0)" xlink:href="#B"/><use transform="matrix(0.05,0,0,0.05,12,0)" xlink:href="#o"/><use transform="matrix(0.05,0,0,0.05,22,0)" xlink:href="#w"/><use transform="matrix(0.05,0,0,0.05,31,0)" xlink:href="#C"/><use transform="matrix(0.05,0,0,0.05,36,0)" xlink:href="#D"/><use transform="matrix(0.05,0,0,0.05,39.95,0)" xlink:href="#E"/><use transform="matrix(0.05,0,0,0.05,49.95,0)" xlink:href="#F"/></g><path d="M185-189c-5-48-123-54-124 2 14 75 158 14 163 119 3 78-121 87-175 55-17-10-28-26-33-46l33-7c5 56 141 63 141-1 0-78-155-14-162-118-5-82 145-84 179-34 5 7 8 16 11 25" id="G"/><path d="M96-169c-40 0-48 33-48 73s9 75 48 75c24 0 41-14 43-38l32 2c-6 37-31 61-74 61-59 0-76-41-82-99-10-93 101-131 147-64 4 7 5 14 7 22l-32 3c-4-21-16-35-41-35" id="H"/><g id="g"><use transform="matrix(0.05,0,0,0.05,0,0)" xlink:href="#G"/><use transform="matrix(0.05,0,0,0.05,12,0)" xlink:href="#H"/><use transform="matrix(0.05,0,0,0.05,21,0)" xlink:href="#u"/><use transform="matrix(0.05,0,0,0.05,26.950000000000003,0)" xlink:href="#y"/><use transform="matrix(0.05,0,0,0.05,36.95,0)" xlink:href="#p"/><use transform="matrix(0.05,0,0,0.05,46.95,0)" xlink:href="#r"/></g><g id="h"><use transform="matrix(0.05,0,0,0.05,0,0)" xlink:href="#z"/><use transform="matrix(0.05,0,0,0.05,9,0)" xlink:href="#o"/><use transform="matrix(0.05,0,0,0.05,19,0)" xlink:href="#A"/></g><g id="i"><use transform="matrix(0.05,0,0,0.05,0,0)" xlink:href="#B"/><use transform="matrix(0.05,0,0,0.05,12,0)" xlink:href="#o"/><use transform="matrix(0.05,0,0,0.05,22,0)" xlink:href="#w"/><use transform="matrix(0.05,0,0,0.05,31,0)" xlink:href="#C"/><use transform="matrix(0.05,0,0,0.05,36,0)" xlink:href="#D"/><use transform="matrix(0.05,0,0,0.05,39.95,0)" xlink:href="#E"/><use transform="matrix(0.05,0,0,0.05,49.95,0)" xlink:href="#F"/><use transform="matrix(0.05,0,0,0.05,59.95,0)" xlink:href="#w"/></g><path d="M30-248c118-7 216 8 213 122C240-48 200 0 122 0H30v-248zM63-27c89 8 146-16 146-99s-60-101-146-95v194" id="I"/><path d="M24 0v-261h32V0H24" id="J"/><g id="j"><use transform="matrix(0.05,0,0,0.05,0,0)" xlink:href="#I"/><use transform="matrix(0.05,0,0,0.05,12.950000000000001,0)" xlink:href="#r"/><use transform="matrix(0.05,0,0,0.05,22.950000000000003,0)" xlink:href="#C"/><use transform="matrix(0.05,0,0,0.05,27.950000000000003,0)" xlink:href="#y"/><use transform="matrix(0.05,0,0,0.05,37.95,0)" xlink:href="#D"/><use transform="matrix(0.05,0,0,0.05,41.900000000000006,0)" xlink:href="#J"/><use transform="matrix(0.05,0,0,0.05,45.85000000000001,0)" xlink:href="#w"/></g><path d="M140-251c81 0 123 46 123 126C263-46 219 4 140 4 59 4 17-45 17-125s42-126 123-126zm0 227c63 0 89-41 89-101s-29-99-89-99c-61 0-89 39-89 99S79-25 140-24" id="K"/><path d="M84 4C-5 8 30-112 23-190h32v120c0 31 7 50 39 49 72-2 45-101 50-169h31l1 190h-30c-1-10 1-25-2-33-11 22-28 36-60 37" id="L"/><g id="k"><use transform="matrix(0.05,0,0,0.05,0,0)" xlink:href="#K"/><use transform="matrix(0.05,0,0,0.05,14,0)" xlink:href="#L"/><use transform="matrix(0.05,0,0,0.05,24,0)" xlink:href="#C"/><use transform="matrix(0.05,0,0,0.05,29,0)" xlink:href="#p"/><use transform="matrix(0.05,0,0,0.05,39,0)" xlink:href="#L"/><use transform="matrix(0.05,0,0,0.05,49,0)" xlink:href="#C"/></g><path d="M190 0L58-211 59 0H30v-248h39L202-35l-2-213h31V0h-41" id="M"/><g id="l"><use transform="matrix(0.05,0,0,0.05,0,0)" xlink:href="#z"/><use transform="matrix(0.05,0,0,0.05,9,0)" xlink:href="#G"/><use transform="matrix(0.05,0,0,0.05,21,0)" xlink:href="#K"/><use transform="matrix(0.05,0,0,0.05,35,0)" xlink:href="#M"/></g><path d="M101-234c-31-9-42 10-38 44h38v23H63V0H32v-167H5v-23h27c-7-52 17-82 69-68v24" id="N"/><g id="m"><use transform="matrix(0.05,0,0,0.05,0,0)" xlink:href="#N"/><use transform="matrix(0.05,0,0,0.05,5,0)" xlink:href="#D"/><use transform="matrix(0.05,0,0,0.05,8.95,0)" xlink:href="#J"/><use transform="matrix(0.05,0,0,0.05,12.899999999999999,0)" xlink:href="#r"/></g></defs></g></svg>